<?xml version="1.0" encoding="UTF-8"?><svg width="72px" height="90px" viewBox="0 0 72 90" version="1.1" xmlns="http://www.w3.org/2000/svg" xmlns:xlink="http://www.w3.org/1999/xlink"><path d="M16.336,29.614 C14.8964698,29.614 13.7295,30.7809698 13.7295,32.2205 C13.7295,33.6600302 14.8964698,34.827 16.336,34.827 C17.7755302,34.827 18.9425,33.6600302 18.9425,32.2205 C18.9425,30.7809698 17.7755302,29.614 16.336,29.614 Z M72.163,67.448 C71.9584376,67.1355439 71.6104619,66.9469005 71.237,66.946 L69.058,66.946 C70.778,63.053 70.331,56.383 70.262,55.5 C70.2321805,55.1088713 69.9957858,54.76343 69.642,54.594 C69.2880554,54.4258779 68.8717797,54.456263 68.546,54.674 C68.456,54.739 58.605,61.353 47.402,60.275 C38.89,59.468 37.263,54.625 36.95,52.681 C47.356,49.804 54.537,40.429 54.537,29.551 C54.537,22.743 51.677,16.601 47.111,12.225 C47.582,11.854 48.651,11.389 50.814,11.29 C51.1060211,11.2772943 51.3809776,11.148885 51.5781671,10.933121 C51.7753566,10.717357 51.8785625,10.4319826 51.865,10.14 C51.839,9.533 51.417,9.025 50.715,9.089 C47.722,9.225 46.221,9.998 45.444,10.764 C45.326,10.67 45.201,10.585 45.081,10.493 C45.799,7.951 47.807,3.028 50.913,2.604 C51.5158188,2.52198571 51.9380143,1.9668188 51.856,1.364 C51.7739857,0.761181196 51.2188188,0.338985715 50.616,0.421 C46.327,1.004 44.051,6.484 43.182,9.178 C42.6712547,8.85513724 42.1485523,8.55158955 41.615,8.268 C42.235,6.787 42.933,3.979 41.092,0.942 C40.7753808,0.422919697 40.0991261,0.256759357 39.578,0.57 C39.0576061,0.885583297 38.8907642,1.56279128 39.205,2.084 C40.519,4.251 40.052,6.26 39.621,7.334 C36.7323783,6.14208286 33.6378682,5.52882081 30.513,5.529 C17.264,5.529 6.488,16.306 6.488,29.552 C6.488,32.904 7.177,36.11 8.426,39.031 C6.095,39.691 3.129,40.22 2.076,39.694 C1.131,39.225 0.539,39.621 0.325,39.815 C-0.024,40.134 -0.345,40.752 0.103,41.899 C1.025,44.267 4.855,48.681 9.939,48.681 L9.969,48.681 L15.951,48.659 C18.0692089,50.2682749 20.4401885,51.5142558 22.967,52.346 C19.612,55.677 15.231,62.729 15.231,68.941 C15.231,71.126 15.931,90.294 40.148,90.294 C62.259,90.294 72.144,68.719 72.243,68.501 C72.3957031,68.1589837 72.3656205,67.7630212 72.163,67.448 L72.163,67.448 Z M9.962,46.473 L9.94,46.473 C6.531,46.473 3.855,43.766 2.701,42.07 C4.9,42.273 7.844,41.513 9.411,41.041 C10.4863116,43.0283867 11.8384854,44.852946 13.427,46.46 L9.962,46.473 L9.962,46.473 Z M40.149,88.086 C18.533,88.086 17.437,72.135 17.437,68.938 C17.437,62.696 22.9,54.723 25.746,52.841 C25.8545592,52.7845332 25.9540054,52.7120554 26.041,52.626 C26.3241334,52.3432721 26.4319504,51.9293834 26.3227409,51.5444511 C26.2135314,51.1595188 25.904424,50.8639161 25.515,50.772 C15.61,48.444 8.692,39.72 8.692,29.55 C8.692,17.52 18.48,7.732 30.512,7.732 C42.542,7.732 52.33,17.52 52.33,29.55 C52.33,39.728 45.405,48.455 35.492,50.774 C34.9132949,50.9136123 34.5527432,51.4906727 34.681,52.072 C34.763,53.545 35.751,61.382 47.193,62.47 C56.488,63.351 64.759,59.41 68.15,57.492 C68.228,61.083 67.816,65.816 66.27,67.237 C65.9338329,67.5439876 65.8212703,68.0262115 65.986786,68.4503037 C66.1523016,68.874396 66.5617571,69.1528856 67.017,69.151 L69.426,69.151 C66.771,73.929 57.442,88.086 40.149,88.086 L40.149,88.086 Z M56.671,64.289 C56.658,64.289 55.767,64.328 54.414,64.328 C51.871,64.328 47.162,64.184 44.176,63.206 C42.279,62.586 40.978,61.748 39.721,60.937 C38.039,59.852 36.448,58.825 33.955,58.745 L33.606,58.741 C29.984,58.741 28.611,60.636 28.225,61.338 C26.533,63.151 25.775,67.531 27.331,71.415 C28.311,73.857 31.024,77.956 38.2,77.956 C50.981,77.956 56.754,68.9 57.77,65.726 C57.88,65.382 57.813,65.007 57.596,64.72 C57.375,64.433 57.045,64.255 56.671,64.289 L56.671,64.289 Z M38.201,75.751 C32.618,75.751 30.32,72.945 29.377,70.594 C28.083,67.364 28.819,63.811 29.894,62.784 C29.995,62.687 30.09,62.541 30.15,62.412 C30.176,62.352 30.841,60.946 33.606,60.946 L33.884,60.95 C35.768,61.01 36.985,61.796 38.526,62.791 C39.837,63.635 41.323,64.595 43.491,65.304 C46.602,66.32 51.148,66.533 54.414,66.533 C54.627,66.533 54.829,66.533 55.019,66.531 C53.18,69.943 48.019,75.751 38.201,75.751 L38.201,75.751 Z" id="duck"></path></svg>
